# xmcd
#
# Track frame offsets:
#  150
#  27234
#  45212
#  60958
#  80330
#  97548
#  126283
#  141964
#  164605
#  190881
#  209908
#  222234
#  241967
#  272220
#  290149
#  322906
#
# Disc length: 4843 seconds
#
# Revision: 0
# Processed by: cddbd v1.5.1PL0 Copyright (c) Steve Scherf et al.
# Submitted via: Collectorz.com Music Collector 6.9
#
DISCID=e812e910
DTITLE=mark knopfler - The Ragpicker's Dream and Bonus Live Tracks
DYEAR=2002
DGENRE=
TTITLE0=Way Aye Man
TTITLE1=Devil Baby
TTITLE2=Hill Farmer's Blues
TTITLE3=A Place Where We Used To Live
TTITLE4=Quality Shoe
TTITLE5=Fare Thee Well Northumberland
TTITLE6=Marbletown
TTITLE7=You Don't Know You're Born
TTITLE8=Coyote
TTITLE9=The Ragpicker's Dream
TTITLE10=Daddy's Gone To Knoxville
TTITLE11=Old Pigweed
TTITLE12=Way Aye Man
TTITLE13=Quality Shoe
TTITLE14=Sailing To Philadelphia
TTITLE15=Brothers In Arms
EXTD=
EXTT0=
EXTT1=
EXTT2=
EXTT3=
EXTT4=
EXTT5=
EXTT6=
EXTT7=
EXTT8=
EXTT9=
EXTT10=
EXTT11=
EXTT12=
EXTT13=
EXTT14=
EXTT15=
PLAYORDER=
